<svg xmlns="http://www.w3.org/2000/svg" style="display: none;"><symbol id="garbage" viewBox="0 0 486.4 486.4"><title>garbage</title><path d="M446,70H344.8V53.5c0-29.5-24-53.5-53.5-53.5h-96.2c-29.5,0-53.5,24-53.5,53.5V70H40.4c-7.5,0-13.5,6-13.5,13.5 S32.9,97,40.4,97h24.4v317.2c0,39.8,32.4,72.2,72.2,72.2h212.4c39.8,0,72.2-32.4,72.2-72.2V97H446c7.5,0,13.5-6,13.5-13.5 S453.5,70,446,70z M168.6,53.5c0-14.6,11.9-26.5,26.5-26.5h96.2c14.6,0,26.5,11.9,26.5,26.5V70H168.6V53.5z M394.6,414.2 c0,24.9-20.3,45.2-45.2,45.2H137c-24.9,0-45.2-20.3-45.2-45.2V97h302.9v317.2H394.6z"/><path d="M243.2,411c7.5,0,13.5-6,13.5-13.5V158.9c0-7.5-6-13.5-13.5-13.5s-13.5,6-13.5,13.5v238.5 C229.7,404.9,235.7,411,243.2,411z"/><path d="M155.1,396.1c7.5,0,13.5-6,13.5-13.5V173.7c0-7.5-6-13.5-13.5-13.5s-13.5,6-13.5,13.5v208.9 C141.6,390.1,147.7,396.1,155.1,396.1z"/><path d="M331.3,396.1c7.5,0,13.5-6,13.5-13.5V173.7c0-7.5-6-13.5-13.5-13.5s-13.5,6-13.5,13.5v208.9 C317.8,390.1,323.8,396.1,331.3,396.1z"/></symbol><symbol id="remove" viewBox="0 0 491.858 491.858"><title>remove</title><path d="M465.167,211.613H240.21H26.69c-8.424,0-26.69,11.439-26.69,34.316s18.267,34.316,26.69,34.316h213.52h224.959 c8.421,0,26.689-11.439,26.689-34.316S473.59,211.613,465.167,211.613z"/></symbol><symbol id="add" viewBox="0 0 491.86 491.86"><title>add</title><path d="M465.167,211.614H280.245V26.691c0-8.424-11.439-26.69-34.316-26.69s-34.316,18.267-34.316,26.69v184.924H26.69 C18.267,211.614,0,223.053,0,245.929s18.267,34.316,26.69,34.316h184.924v184.924c0,8.422,11.438,26.69,34.316,26.69 s34.316-18.268,34.316-26.69V280.245H465.17c8.422,0,26.69-11.438,26.69-34.316S473.59,211.614,465.167,211.614z"/></symbol></svg>